<?xml version="1.0" encoding="utf-8"?>
<svg viewBox="60.569 99.939 299.516 298.305" xmlns="http://www.w3.org/2000/svg" xmlns:bx="https://boxy-svg.com">
  <defs>
    <bx:guide x="213.68683200429757" y="200.38757859410066" angle="0"/>
    <bx:guide x="196.72747248303926" y="194.93635589083905" angle="-90"/>
  </defs>
  <path fill="#EB222A" opacity="1.000000" stroke="none" d="M 192.214 99.406 C 203.901 99.406 215.589 99.406 227.961 99.754 C 238.847 102.497 249.05 104.893 259.292 107.651 C 260.173 108.729 260.916 109.632 261.871 110.13 C 273.084 115.984 284.321 121.793 295.576 127.565 C 296.809 128.198 298.195 128.532 299.512 129.042 C 299.515 129.079 299.455 129.123 299.497 129.48 C 301.472 131.012 303.407 132.187 305.683 133.395 C 313.329 140.828 321.112 147.819 327.836 155.713 C 341.005 171.171 349.87 189.073 355.171 208.656 C 357.198 216.146 358.553 223.817 360.214 231.406 C 360.214 243.094 360.214 254.781 359.866 267.153 C 359.093 270.595 358.663 273.353 358.243 276.112 C 355.324 295.249 348.129 312.75 338.009 329.144 C 328.963 343.797 317.296 356.108 304.09 367.013 C 288.392 379.974 270.613 389.031 251.003 394.366 C 243.505 396.406 235.816 397.747 228.214 399.406 C 216.526 399.406 204.839 399.406 192.467 399.058 C 189.024 398.285 186.267 397.855 183.508 397.437 C 164.365 394.535 146.866 387.331 130.475 377.209 C 115.823 368.16 103.506 356.495 92.606 343.278 C 79.654 327.575 70.601 309.8 65.261 290.195 C 63.218 282.697 61.875 275.008 60.214 267.406 C 60.214 255.718 60.214 244.031 60.562 231.659 C 61.335 228.217 61.764 225.459 62.185 222.7 C 65.104 203.562 72.299 186.061 82.419 169.667 C 91.465 155.014 103.133 142.703 116.339 131.798 C 132.036 118.836 149.817 109.785 169.424 104.446 C 176.922 102.404 184.612 101.065 192.214 99.406 M 231.851 368.177 C 232.206 372.148 234.798 369.824 236.252 369.521 C 289.131 358.467 327.946 313.87 332.957 258.526 C 337.584 207.422 306.477 156.264 258.328 136.322 C 249.991 132.869 241.17 130.587 231.843 127.525 C 231.843 208.406 231.843 287.86 231.851 368.177 M 187.967 222.906 C 187.967 191.538 187.967 160.17 187.967 128.67 C 133.409 137.881 83.248 188.695 87.442 257.659 C 90.807 313.005 140.523 368.491 187.966 369.78 C 187.966 321.149 187.966 272.528 187.967 222.906 Z"/>
  <path fill="#010000" opacity="1.000000" stroke="none" d="M 231.847 367.745 C 231.843 287.86 231.843 208.406 231.843 127.525 C 241.17 130.587 249.991 132.869 258.328 136.322 C 306.477 156.264 337.584 207.422 332.957 258.526 C 327.946 313.87 289.131 358.467 236.252 369.521 C 234.798 369.824 232.206 372.148 231.847 367.745 M 307.48 224.508 C 287.044 238.201 266.609 251.893 246.019 265.689 C 246.787 266.517 247.305 267.15 247.897 267.703 C 256.714 275.938 277.786 278.821 288.504 273.165 C 289.603 272.586 290.465 271.409 291.225 270.357 C 300.313 257.76 306.446 243.899 308.814 228.489 C 309.025 227.113 308.45 225.616 307.48 224.508 Z"/>
  <path fill="#020101" opacity="1.000000" stroke="none" d="M 187.967 223.406 C 187.966 272.528 187.966 321.149 187.966 369.78 C 140.523 368.491 90.807 313.005 87.442 257.659 C 83.248 188.695 133.409 137.881 187.967 128.67 C 187.967 160.17 187.967 191.538 187.967 223.406 M 150.493 275.836 C 159.538 275.462 167.715 273.087 174.133 265.645 C 153.162 251.62 132.413 237.744 110.878 223.342 C 111.939 236.574 116.466 247.477 121.288 258.47 C 126.869 271.194 135.871 277.083 150.493 275.836 Z"/>
  <path fill="#F3232B" opacity="1.000000" stroke="none" d="M 259.292 107.651 C 273.943 111.822 287.312 118.873 299.455 128.685 C 298.195 128.532 296.809 128.198 295.576 127.565 C 284.321 121.793 273.084 115.984 261.871 110.13 C 260.916 109.632 260.173 108.729 259.292 107.651 Z"/>
  <path fill="#F3232B" opacity="1.000000" stroke="none" d="M 299.497 129.48 C 301.308 130.335 303.162 131.546 305.178 133.06 C 303.407 132.187 301.472 131.012 299.497 129.48 Z"/>
  <path fill="#FBFBFB" opacity="1.000000" stroke="none" d="M 307.86 224.342 C 308.45 225.616 309.025 227.113 308.814 228.489 C 306.446 243.899 300.313 257.76 291.225 270.357 C 290.465 271.409 289.603 272.586 288.504 273.165 C 277.786 278.821 256.714 275.938 247.897 267.703 C 247.305 267.15 246.787 266.517 246.019 265.689 C 266.609 251.893 287.044 238.201 307.86 224.342 Z"/>
  <path fill="#FCFCFC" opacity="1.000000" stroke="none" d="M 150.06 275.848 C 135.871 277.083 126.869 271.194 121.288 258.47 C 116.466 247.477 111.939 236.574 110.878 223.342 C 132.413 237.744 153.162 251.62 174.133 265.645 C 167.715 273.087 159.538 275.462 150.06 275.848 Z"/>
</svg>